# xmcd CD database file
#
# Track frame offsets:
#	150
#	32380
#	64682
#	94965
#	112610
#	136652
#
# Disc length: 2519 seconds
#
# Revision: 0
# Processed by: cddbd v1.5.1PL0 Copyright (c) Steve Scherf et al.
# Submitted via: CDex 1.51
#
DISCID=3d09d506
DTITLE=THE GORDON BECK TRIO - GYROSCOPE
DYEAR=1969
DGENRE=Jazz
TTITLE0=GYROSCOPE
TTITLE1=CLUSTERS
TTITLE2=SUITE NO.1
TTITLE3=MISS T FYING
TTITLE4=SINCERITY
TTITLE5=AND STILL SHE IS WITH ME/OXUS
EXTD=YEAR: 1969
EXTT0=
EXTT1=
EXTT2=
EXTT3=
EXTT4=
EXTT5=
PLAYORDER=
